<?xml version="1.0" encoding="UTF-8" standalone="no"?>
<!-- Generator: Adobe Illustrator 15.0.2, SVG Export Plug-In  -->

<svg
   xmlns:dc="http://purl.org/dc/elements/1.1/"
   xmlns:cc="http://creativecommons.org/ns#"
   xmlns:rdf="http://www.w3.org/1999/02/22-rdf-syntax-ns#"
   xmlns:svg="http://www.w3.org/2000/svg"
   xmlns="http://www.w3.org/2000/svg"
   xmlns:sodipodi="http://sodipodi.sourceforge.net/DTD/sodipodi-0.dtd"
   xmlns:inkscape="http://www.inkscape.org/namespaces/inkscape"
   version="1.1"
   x="0px"
   y="0px"
   width="232px"
   height="228px"
   viewBox="-12.883 -9.272 232 228"
   overflow="visible"
   enable-background="new -12.883 -9.272 232 228"
   xml:space="preserve"
   id="svg2"
   inkscape:version="0.48.5 r10040"
   sodipodi:docname="prev.svg"><metadata
     id="metadata18"><rdf:RDF><cc:Work
         rdf:about=""><dc:format>image/svg+xml</dc:format><dc:type
           rdf:resource="http://purl.org/dc/dcmitype/StillImage" /><dc:title></dc:title></cc:Work></rdf:RDF></metadata><sodipodi:namedview
     pagecolor="#ffffff"
     bordercolor="#666666"
     borderopacity="1"
     objecttolerance="10"
     gridtolerance="10"
     guidetolerance="10"
     inkscape:pageopacity="0"
     inkscape:pageshadow="2"
     inkscape:window-width="640"
     inkscape:window-height="480"
     id="namedview16"
     showgrid="false"
     inkscape:zoom="1.0350877"
     inkscape:cx="116"
     inkscape:cy="111.02542"
     inkscape:window-x="0"
     inkscape:window-y="35"
     inkscape:window-maximized="0"
     inkscape:current-layer="svg2" /><defs
     id="defs4" /><polygon
     display="none"
     fill="#FFFFFF"
     points="77.889,144.546 77.936,64.163 147.526,104.395 "
     id="polygon8" /><rect
     x="72.177"
     y="64.176"
     display="none"
     fill="#FFFFFF"
     width="21"
     height="81"
     id="rect10" /><rect
     x="112.177"
     y="64.176"
     display="none"
     fill="#FFFFFF"
     width="21"
     height="81"
     id="rect12" /><g
     id="g2995"
     transform="matrix(-1,0,0,1,208.70799,0)"><circle
       style="fill-opacity:0.67000002;stroke:#ffffff;stroke-width:15.77929974;stroke-miterlimit:10"
       transform="matrix(-1,0,0,1,208.70799,-2.5537109e-6)"
       sodipodi:ry="96.463997"
       sodipodi:rx="96.463997"
       sodipodi:cy="104.354"
       sodipodi:cx="104.354"
       id="circle6"
       r="96.463997"
       cy="104.354"
       cx="104.354"
       stroke-miterlimit="10"
       d="m 200.81799,104.354 c 0,53.27559 -43.1884,96.46399 -96.46399,96.46399 -53.275598,0 -96.4640006,-43.1884 -96.4640006,-96.46399 0,-53.275598 43.1884026,-96.4640006 96.4640006,-96.4640006 53.27559,0 96.46399,43.1884026 96.46399,96.4640006 z" /><polygon
       id="polygon14"
       points="135.284,150.019 135.294,130.428 94.076,106.601 135.322,82.818 135.332,63.269 60.181,106.601 "
       style="fill:#ffffff" /></g></svg>